<svg id="Layer_1" data-name="Layer 1" xmlns="http://www.w3.org/2000/svg" viewBox="0 0 1080 1080"><defs><style>.cls-1{fill:#1e1e1e;}.cls-2{fill:#fff;}.cls-3{fill:none;stroke:#1e1e1e;stroke-miterlimit:10;}.cls-4{font-size:52.41px;fill:ivory;font-family:ProximaNova-Bold, Proxima Nova;font-weight:700;}</style></defs><path class="cls-1" d="M864.21,545.79,648.64,599.14l65.14,108.22-120-58.29L544.07,874.5l-26-89.82c13.65-81.83,39.52-156.64,67.57-219.53a15.23,15.23,0,0,0,4.4-1.33v.79h14.75V545.16c0-4.87-1.64-8.56-4.75-11,48.62-100.23,98.59-163.32,99.89-165l0,0s36.32-60,53.25-48.42c0,0,7.73.25-19,30.36a13.06,13.06,0,0,0-2.94,5.62l-5.48,22.87a2.23,2.23,0,0,1-4.2.39l-9-20.08-6.43,9.26L642.43,490.29ZM710,552.93l.41-1.65-12.47-5.41-.1-.15,6.12-12.13-1.35-1a14.25,14.25,0,0,0-8.34-2.48,20.19,20.19,0,0,0-6.91,1.28c-7,2.56-11.44,8-12.21,14.31v-14h-.5a14,14,0,1,0-13.76,0h-.5v32.86h14.76v-15a17.32,17.32,0,0,0,1,4.07A16.38,16.38,0,0,0,692,564.91a20.66,20.66,0,0,0,7.09-1.29C705.74,561.19,709.08,556.5,710,552.93Zm-51.58,11.68V541.7c0-6.68-4.08-10.67-10.9-10.67a14.9,14.9,0,0,0-9.72,3.67c-1.55-2-4.19-3.67-8.69-3.67a15.81,15.81,0,0,0-7.56,1.94v-1.22H606.77v32.86h14.75v-19a3.17,3.17,0,0,1,2.36-1c1,0,1.29.25,1.29,1.22v18.85h14.76v-19a3.24,3.24,0,0,1,2.42-1c1,0,1.28.28,1.28,1.22v18.85Z"/><path class="cls-1" d="M712.5,342.43l-8.84,13.34L685.82,351C685,335,712.5,342.43,712.5,342.43Z"/><path class="cls-2" d="M710.38,551.28l-.41,1.65c-.89,3.57-4.23,8.26-10.91,10.69a20.66,20.66,0,0,1-7.09,1.29,16.38,16.38,0,0,1-15.88-11.21,17.32,17.32,0,0,1-1-4.07V545.7c.77-6.28,5.19-11.75,12.21-14.31a20.19,20.19,0,0,1,6.91-1.28,14.25,14.25,0,0,1,8.34,2.48l1.35,1-6.12,12.13-1.91-1.44a3.33,3.33,0,0,0-2-.64,4.22,4.22,0,0,0-1.49.28,3.84,3.84,0,0,0-2.17,1.75,3.46,3.46,0,0,0-.05,2.9,3.29,3.29,0,0,0,3.21,2.48,4.27,4.27,0,0,0,1.5-.28,3.86,3.86,0,0,0,2.44-2.63l.58-2.27ZM708,552.44l-8.76-3.8a5.84,5.84,0,0,1-3.69,4,5.39,5.39,0,0,1-7.28-3.39,5.34,5.34,0,0,1,3.42-7.22,5.62,5.62,0,0,1,5.38.64l4.29-8.49c-2.36-1.75-7.2-3.16-13.37-.92-8.6,3.13-13.18,11.16-10,19.75s11.82,11.85,20.41,8.72C704.55,559.49,707.33,555.24,708,552.44Z"/><path class="cls-1" d="M699.27,548.64l8.76,3.8c-.7,2.8-3.48,7-9.65,9.3-8.59,3.13-17.26-.08-20.41-8.72s1.45-16.62,10-19.75c6.17-2.24,11-.83,13.37.92l-4.29,8.49a5.62,5.62,0,0,0-5.38-.64,5.34,5.34,0,0,0-3.42,7.22,5.39,5.39,0,0,0,7.28,3.39A5.84,5.84,0,0,0,699.27,548.64Z"/><path class="cls-2" d="M697.81,545.72l.1.15-.58,2.27a3.86,3.86,0,0,1-2.44,2.63,4.27,4.27,0,0,1-1.5.28,3.29,3.29,0,0,1-3.21-2.48,3.46,3.46,0,0,1,.05-2.9,3.84,3.84,0,0,1,2.17-1.75,4.22,4.22,0,0,1,1.49-.28,3.33,3.33,0,0,1,2,.64Z"/><path class="cls-2" d="M667.74,505.68a13.94,13.94,0,0,1,6.88,26.07H660.86a13.94,13.94,0,0,1,6.88-26.07Zm12,13.95a12,12,0,1,0-12,11.94A11.91,11.91,0,0,0,679.69,519.63Z"/><path class="cls-1" d="M667.74,507.68a11.95,11.95,0,1,1-12,11.95A11.91,11.91,0,0,1,667.74,507.68Z"/><path class="cls-2" d="M675.12,549.63v15H660.36V531.75h.5a13.91,13.91,0,0,0,13.76,0h.5v14A16.15,16.15,0,0,0,675.12,549.63Zm-2,13V533.75H662.36v28.86Z"/><path class="cls-1" d="M675.12,545.7v3.93A16.15,16.15,0,0,1,675.12,545.7Z"/><path class="cls-2" d="M660.86,531.75h13.76a13.91,13.91,0,0,1-13.76,0Z"/><rect class="cls-1" x="662.36" y="533.75" width="10.76" height="28.86"/><path class="cls-1" d="M599.25,427.27l64.39-41.13A2069.38,2069.38,0,0,0,500.49,528.93c-4.15-5.14-10.92-8.17-19.29-8.17H461.39v11H455.3v-7.89H440.54v7.89h-4.78v7a16.25,16.25,0,0,0-13.9-8A18.66,18.66,0,0,0,405.46,541a16.7,16.7,0,0,0-1.55,6.06V542c0-6.77-4.45-11-11.62-11a16.16,16.16,0,0,0-7.92,1.9V520.76H369.61v43.85h14.76v-19a3.41,3.41,0,0,1,2.6-1.06c1.87,0,2.18.5,2.18,2v18.07h14.76V549a17.22,17.22,0,0,0,1,5.1c2.57,7.06,8.44,11.27,15.72,11.27a20.85,20.85,0,0,0,7.14-1.31c4-1.46,9.12-4.46,11.4-8.47l.87-1.55h.46v.21c0,7,4.34,11.08,11.92,11.08,3.76,0,6.9-.88,8.62-2.42l.31-.28v2h3.28l-2.51,2.56q-35,35.87-66.38,71.29l12.81-36.31,2.73-7.72L217.5,543.64l216-49.82L374.35,366.54l114.43,66.21,53.36-222.43,48.54,222.43Z"/><path class="cls-2" d="M658.39,541.7v22.91H643.63V545.76c0-.94-.3-1.22-1.28-1.22a3.24,3.24,0,0,0-2.42,1v19H625.17V545.76c0-1-.26-1.22-1.29-1.22a3.17,3.17,0,0,0-2.36,1v19H606.77V531.75h14.75V533a15.81,15.81,0,0,1,7.56-1.94c4.5,0,7.14,1.67,8.69,3.67a14.9,14.9,0,0,1,9.72-3.67C654.31,531,658.39,535,658.39,541.7Zm-2,20.91V541.7c0-6-3.58-8.67-8.9-8.67a12.44,12.44,0,0,0-10.1,5.08c-1.32-3.58-4.24-5.08-8.31-5.08-4.66,0-8.3,2.39-9.56,4v-3.29H608.77v28.86h10.75v-17.8a5.57,5.57,0,0,1,4.36-2.27c2.46,0,3.29,1.49,3.29,3.22v16.85h10.76v-17.8a5.58,5.58,0,0,1,4.42-2.27,3,3,0,0,1,3.28,3.22v16.85Z"/><path class="cls-1" d="M656.39,541.7v20.91H645.63V545.76a3,3,0,0,0-3.28-3.22,5.58,5.58,0,0,0-4.42,2.27v17.8H627.17V545.76c0-1.73-.83-3.22-3.29-3.22a5.57,5.57,0,0,0-4.36,2.27v17.8H608.77V533.75h10.75V537c1.26-1.62,4.9-4,9.56-4,4.07,0,7,1.5,8.31,5.08a12.44,12.44,0,0,1,10.1-5.08C652.81,533,656.39,535.72,656.39,541.7Z"/><path class="cls-2" d="M586.63,562.92a9.91,9.91,0,0,0,5.41-3.06v2.75h10.75V545.16c0-9.62-7-12.13-14.16-12.13-4.36,0-9.74,1.26-13.62,4.37l3.64,6.63a13.89,13.89,0,0,1,8-2.81c3.52,0,5.38,1.55,5.38,3.59v3c-1.56-2-5-3.16-8.73-3.16-4.3,0-9.92,2-9.92,9.2,0,6.57,5.62,9.5,9.92,9.5A13.54,13.54,0,0,0,586.63,562.92Zm-1,2.23a15.14,15.14,0,0,1-2.33.18c-5.76,0-11.89-4-11.92-11.44v-.06c0-4.84,2.21-7.86,5.13-9.52l-4.08-7.42,1.32-1.06a24.47,24.47,0,0,1,14.87-4.8c4.86,0,8.69,1.09,11.41,3.17,3.11,2.4,4.75,6.09,4.75,11v19.45H590v-.79A15.23,15.23,0,0,1,585.64,565.15Z"/><path class="cls-1" d="M602.79,545.16v17.45H592v-2.75a9.91,9.91,0,0,1-5.41,3.06,13.54,13.54,0,0,1-3.32.41c-4.3,0-9.92-2.93-9.92-9.5,0-7.17,5.62-9.2,9.92-9.2,3.77,0,7.17,1.19,8.73,3.16v-3c0-2-1.86-3.59-5.38-3.59a13.89,13.89,0,0,0-8,2.81L575,537.4c3.88-3.11,9.26-4.37,13.62-4.37C595.8,533,602.79,535.54,602.79,545.16ZM592,554.78v-1.61c-.72-1-2.57-1.55-4.25-1.55s-3.76.6-3.76,2.39,2,2.33,3.76,2.33S591.32,555.8,592,554.78Z"/><path class="cls-2" d="M592,553.17v1.61c-.72,1-2.57,1.56-4.25,1.56S584,555.8,584,554s2-2.39,3.76-2.39S591.32,552.16,592,553.17Zm-2.22.81a5.68,5.68,0,0,0-2-.36,2.86,2.86,0,0,0-1.78.4,3.77,3.77,0,0,0,1.78.32A5.68,5.68,0,0,0,589.82,554Z"/><path class="cls-1" d="M571.39,553.83v10.78H556.64v-18c0-1.67-.47-2.13-2.18-2.13a3.42,3.42,0,0,0-2.61,1.06v19H537.1V531.75h14.75v1.18a14.49,14.49,0,0,1,4-1.49,17.82,17.82,0,0,1,3.9-.41c7.17,0,11.62,4.25,11.62,11.09Zm-2,8.78V542.12c0-5-2.92-9.09-9.62-9.09-5.08,0-8.24,2.09-9.92,4v-3.29H539.1v28.86h10.75v-17.8a5.71,5.71,0,0,1,4.61-2.28c2.56,0,4.18,1.14,4.18,4.13v16Z"/><path class="cls-2" d="M569.39,542.12v20.49H558.64v-16c0-3-1.62-4.13-4.18-4.13a5.71,5.71,0,0,0-4.61,2.28v17.8H539.1V533.89l.06-.14h10.69V537c1.68-1.92,4.84-4,9.92-4C566.47,533,569.39,537.1,569.39,542.12Z"/><polygon class="cls-1" points="539.16 533.75 539.1 533.89 539.1 533.75 539.16 533.75"/><path class="cls-1" d="M537.1,533.75v5.31l-10.78,27.86c-3.05,8-9.13,9.22-15.25,9.4H511a23.32,23.32,0,0,1-4.75-.56l-1.68-.49,2.2-14.1,2.49,1.36a3.17,3.17,0,0,0,1.32.29,8.58,8.58,0,0,0,1.7-.13L505,543.92v0c0-.41,0-.83,0-1.25a23.45,23.45,0,0,0-.83-6.33l10.36,26.77-.24.6c-.36.77-1.67,1.13-3.76,1.13a5.14,5.14,0,0,1-2.27-.53l-1.5,9.56a22.66,22.66,0,0,0,4.19.47c6.09-.18,10.87-1.43,13.44-8.12L537,533.75Z"/><path class="cls-1" d="M537.1,531.75v2H525.65l-5.55,16.49-5.5-16.49H503.37a19.44,19.44,0,0,0-1-2H516l4.07,12.2,4.11-12.2Z"/><path class="cls-2" d="M537,533.75,524.46,566.2c-2.57,6.69-7.35,7.94-13.44,8.12a22.66,22.66,0,0,1-4.19-.47l1.5-9.56a5.14,5.14,0,0,0,2.27.53c2.09,0,3.4-.36,3.76-1.13l.24-.6-10.36-26.77v-.07a20.41,20.41,0,0,0-.85-2.5H514.6l5.5,16.49,5.55-16.49Z"/><path class="cls-2" d="M505.07,542.65c0,.42,0,.84,0,1.25v0c-.6,12.44-10,20.69-23.78,20.69H461.39V520.76H481.2c8.37,0,15.14,3,19.29,8.17a19.6,19.6,0,0,1,2.88,4.82l.85,2.5v.07A23.45,23.45,0,0,1,505.07,542.65Zm-2,0a22.6,22.6,0,0,0-.64-5.47v0a17.88,17.88,0,0,0-1.7-4.4,15.8,15.8,0,0,0-1.64-2.47c-3.87-4.9-10.28-7.53-17.88-7.53H463.39v39.85h17.87C493.75,562.61,503.07,555.38,503.07,542.65Z"/><path class="cls-1" d="M504.22,536.25l-.85-2.5A20.41,20.41,0,0,1,504.22,536.25Z"/><path class="cls-1" d="M502.43,537.18a22.6,22.6,0,0,1,.64,5.47c0,12.73-9.32,20-21.81,20H463.39V522.76H481.2c7.6,0,14,2.63,17.88,7.53a15.8,15.8,0,0,1,1.64,2.47,17.88,17.88,0,0,1,1.7,4.4Zm-11.61,5.47a11.2,11.2,0,0,0-.58-3.69c-1.16-3.42-4.12-5.69-9-5.69h-5.8V552.1h5.74A9.22,9.22,0,0,0,490.82,542.65Z"/><polygon class="cls-1" points="485.89 575.14 469.17 653.57 371.14 719.14 429.32 613.07 485.89 575.14"/><path class="cls-2" d="M461.39,559.66v3l-.31.28c-1.72,1.54-4.86,2.42-8.62,2.42-7.58,0-11.92-4-11.92-11.08v-9.18h-1.93l-.65-1.78a2,2,0,0,0-.09-.22h4.67v11.18c0,6,3.53,9.08,9.92,9.08,3.64,0,6.15-.9,7.29-1.91l-1.91-8.13a3.94,3.94,0,0,1-2.15.54,2.47,2.47,0,0,1-2.39-2.69v-8.07h5.85v-9.32H453.3v-7.89H442.54v7.89h-4.78v9a22.11,22.11,0,0,0-2-4v-7h4.78v-7.89H455.3v7.89h5.85v13.32H455.3v6.07c0,.07,0,.69.39.69a3.43,3.43,0,0,0,.92-.14l2.35-2.35Z"/><path class="cls-1" d="M457.84,553.29l1.91,8.13c-1.14,1-3.65,1.91-7.29,1.91-6.39,0-9.92-3.05-9.92-9.08V543.07h-4.67a2.49,2.49,0,0,0-.11-.29v-9h4.78v-7.89H453.3v7.89h5.85v9.32H453.3v8.07a2.47,2.47,0,0,0,2.39,2.69A3.94,3.94,0,0,0,457.84,553.29Z"/><path class="cls-2" d="M440.08,554l-.87,1.55c-2.28,4-7.38,7-11.4,8.47a20.85,20.85,0,0,1-7.14,1.31c-7.28,0-13.15-4.21-15.72-11.27a17.22,17.22,0,0,1-1-5.1v-1.92a16.7,16.7,0,0,1,1.55-6.06,18.66,18.66,0,0,1,16.4-10.18,16.25,16.25,0,0,1,13.9,8,22.11,22.11,0,0,1,2,4v.29h.11a2,2,0,0,1,.09.22l.65,1.78.79,2.18-5.72,2.08Zm-2.61.56L431,549.88c-.92,1.67-4,3.63-5.54,4.18-3.31,1.2-5.89.23-7.08-1.3l18.42-6.71-.36-1-.66-1.77-.06-.15c-3.64-8.92-11.6-12.13-19.33-9.32-8.76,3.19-12.46,11.72-9.6,19.58,3.25,8.93,11.82,11.86,20.3,8.77C431.17,560.71,435.61,557.88,437.47,554.6Z"/><path class="cls-1" d="M437.76,542.78a2.49,2.49,0,0,1,.11.29h-.11Z"/><path class="cls-1" d="M431,549.88l6.43,4.72c-1.86,3.28-6.3,6.11-10.34,7.58-8.48,3.09-17.05.16-20.3-8.77-2.86-7.86.84-16.39,9.6-19.58,7.73-2.81,15.69.4,19.33,9.32l.06.15.66,1.77.36,1-18.42,6.71c1.19,1.53,3.77,2.5,7.08,1.3C427,553.51,430.12,551.55,431,549.88ZM416,546.4l8.92-3.25c-.71-1.08-2.42-2.81-5.67-1.62A4.47,4.47,0,0,0,416,546.4Z"/><path class="cls-2" d="M424.9,543.15,416,546.4a4.47,4.47,0,0,1,3.25-4.87C422.48,540.34,424.19,542.07,424.9,543.15Z"/><path class="cls-2" d="M403.91,549v15.61H389.15V546.54c0-1.51-.31-2-2.18-2a3.41,3.41,0,0,0-2.6,1.06v19H369.61V520.76h14.76v12.17a16.16,16.16,0,0,1,7.92-1.9c7.17,0,11.62,4.2,11.62,11v5.08A15.37,15.37,0,0,0,403.91,549Zm-2,13.61V542c0-5-2.93-9-9.62-9-5.08,0-8.25,2.1-9.92,4V522.76H371.61v39.85h10.76v-17.8a5.67,5.67,0,0,1,4.6-2.27c2.57,0,4.18,1,4.18,4v16.07Z"/><path class="cls-1" d="M403.91,547.08V549A15.37,15.37,0,0,1,403.91,547.08Z"/><path class="cls-1" d="M401.91,542v20.61H391.15V546.54c0-3-1.61-4-4.18-4a5.67,5.67,0,0,0-4.6,2.27v17.8H371.61V522.76h10.76V537c1.67-1.91,4.84-4,9.92-4C399,533,401.91,537,401.91,542Z"/><polyline class="cls-3" points="599.25 427.27 595.5 411.64 541.5 178.93 538.92 190.93 483.64 420.22 364.07 353.79 419.35 486.64 196.07 543.64 397.5 599.14 408.59 602.15"/><polyline class="cls-3" points="406.82 638.47 353.14 737.14 465.64 663.22"/><path class="cls-3" d="M700,369.21s36.32-60,53.25-48.42c0,0,7.73.25-19,30.36a13.06,13.06,0,0,0-2.94,5.62l-5.48,22.87a2.23,2.23,0,0,1-4.2.39l-9-20.08-6.43,9.26"/><path class="cls-3" d="M555.87,531.44q5.34-8,11-16.08a790,790,0,0,1,133-146.12"/><path class="cls-3" d="M474.91,695.29c12.4-17,17.3.07,17.3.07l25.86,89.32,26,89.82,49.71-225.43,120,58.29L648.64,599.14l215.57-53.35-221.78-55.5,63.64-121.08L654.64,487.07l229.29,58.72L663.64,604.93l66.43,117.43L599.35,660.21,544.67,901.07,485.89,697.93s-2.23-7.65-11-2.64a82.51,82.51,0,0,0-6.7,11.32q1.55-4.36,3.2-8.89A790.26,790.26,0,0,1,537.1,561"/><path class="cls-3" d="M699.93,369.24l0,0"/><text class="cls-4" transform="translate(230.14 975.54)">Global Immigration Expert</text></svg>